HIERARCHY
ROOT joint_Root
{
	OFFSET 0.0 0.0 0.0
	CHANNELS 6 Xposition Yposition Zposition Zrotation Xrotation Yrotation 
	JOINT Hips
	{
		OFFSET -17.1583 93.1646 452.98
		CHANNELS 6 Xposition Yposition Zposition Zrotation Xrotation Yrotation 
		JOINT Spine
		{
			OFFSET 15.7357 0.0 0.0
			CHANNELS 6 Xposition Yposition Zposition Zrotation Xrotation Yrotation 
			JOINT Chest
			{
				OFFSET 8.98455 -0.406207 0.0
				CHANNELS 6 Xposition Yposition Zposition Zrotation Xrotation Yrotation 
				JOINT Neck
				{
					OFFSET 16.3773 0.0 0.0
					CHANNELS 6 Xposition Yposition Zposition Zrotation Xrotation Yrotation 
					JOINT Head
					{
						OFFSET 6.45672 0.0 0.0
						CHANNELS 6 Xposition Yposition Zposition Zrotation Xrotation Yrotation 
						End Site
						{
							OFFSET 0.0 0.0 0.0
						}
					}
				}
				JOINT Shoulder_L
				{
					OFFSET 12.9942 -0.242716 4.98039
					CHANNELS 6 Xposition Yposition Zposition Zrotation Xrotation Yrotation 
					JOINT UpperArm_L
					{
						OFFSET 5.34809 0.0 0.0
						CHANNELS 6 Xposition Yposition Zposition Zrotation Xrotation Yrotation 
						JOINT LowerArm_L
						{
							OFFSET 24.3286 1.87007e-05 0.0
							CHANNELS 6 Xposition Yposition Zposition Zrotation Xrotation Yrotation 
							JOINT Hand_L
							{
								OFFSET 22.2916 0.0 0.0
								CHANNELS 6 Xposition Yposition Zposition Zrotation Xrotation Yrotation 
								End Site
								{
									OFFSET 0.0 0.0 0.0
								}
							}
						}
					}
				}
				JOINT Shoulder_R
				{
					OFFSET 12.9945 -0.242716 -4.98039
					CHANNELS 6 Xposition Yposition Zposition Zrotation Xrotation Yrotation 
					JOINT UpperArm_R
					{
						OFFSET -5.34813 0.0 0.0
						CHANNELS 6 Xposition Yposition Zposition Zrotation Xrotation Yrotation 
						JOINT LowerArm_R
						{
							OFFSET -24.3289 0.000322201 0.0
							CHANNELS 6 Xposition Yposition Zposition Zrotation Xrotation Yrotation 
							JOINT Hand_R
							{
								OFFSET -22.2915 -0.000108084 0.0
								CHANNELS 6 Xposition Yposition Zposition Zrotation Xrotation Yrotation 
								End Site
								{
									OFFSET 0.0 0.0 0.0
								}
							}
						}
					}
				}
			}
		}
		JOINT UpperLeg_L
		{
			OFFSET -2.19248 -6.46944 0.0
			CHANNELS 6 Xposition Yposition Zposition Zrotation Xrotation Yrotation 
			JOINT LowerLeg_L
			{
				OFFSET 39.0811 0.0 -1.23785e-05
				CHANNELS 6 Xposition Yposition Zposition Zrotation Xrotation Yrotation 
				JOINT Foot_L
				{
					OFFSET 40.9854 0.0 -1.26872e-05
					CHANNELS 6 Xposition Yposition Zposition Zrotation Xrotation Yrotation 
					JOINT Toes_L
					{
						OFFSET 11.7543 0.0 0.0
						CHANNELS 6 Xposition Yposition Zposition Zrotation Xrotation Yrotation 
						End Site
						{
							OFFSET 0.0 0.0 0.0
						}
					}
				}
			}
		}
		JOINT UpperLeg_R
		{
			OFFSET -2.19251 6.46944 0.0
			CHANNELS 6 Xposition Yposition Zposition Zrotation Xrotation Yrotation 
			JOINT LowerLeg_R
			{
				OFFSET -39.0811 -0.00228153 -0.0401928
				CHANNELS 6 Xposition Yposition Zposition Zrotation Xrotation Yrotation 
				JOINT Foot_R
				{
					OFFSET -40.9854 0.0 0.0
					CHANNELS 6 Xposition Yposition Zposition Zrotation Xrotation Yrotation 
					JOINT Toes_R
					{
						OFFSET -11.7543 0.0 0.0
						CHANNELS 6 Xposition Yposition Zposition Zrotation Xrotation Yrotation 
						End Site
						{
							OFFSET 0.0 0.0 0.0
						}
					}
				}
			}
		}
	}
}
MOTION
Frames:	4
Frame Time:	0.0333333
0.000000 0.000000 0.000000 0.000000 0.000000 -0.000000 -3.796250 91.575100 0.899423 85.717100 -0.396563 7.231870 15.735700 0.000005 -0.000001 95.039900 85.829400 -93.197400 8.984550 -0.406207 -0.000000 0.535730 0.616342 3.679320 16.377300 -0.000001 -0.000001 12.434700 0.089852 -14.077300 6.456720 -0.000001 -0.000000 -7.331630 0.508728 -23.950200 12.994200 -0.242716 4.980390 -93.523600 8.685930 -67.817300 5.348090 -0.000007 -0.000001 -73.999900 -8.143200 -9.820640 24.328600 0.000019 0.000005 29.445800 -34.690300 -135.233000 22.291600 -0.000001 0.000005 35.720100 5.134190 4.318550 12.994500 -0.242716 -4.980390 87.895800 5.638590 -69.496700 -5.348130 -0.000001 -0.000004 -69.594700 32.888800 -5.382130 -24.328900 0.000322 -0.000009 0.946350 3.322600 -15.924700 -22.291500 -0.000108 -0.000004 -2.194620 5.288940 0.380453 -2.192480 -6.469440 -0.000000 -174.715000 2.949940 0.585375 39.081100 -0.000007 -0.000012 0.393520 -0.733565 28.212200 40.985400 -0.000006 -0.000013 0.622997 4.159570 -77.392300 11.754300 -0.000000 0.000003 -0.000500 0.175649 -9.452100 -2.192510 6.469440 -0.000001 -171.681000 8.292750 -172.675000 -39.081100 -0.002282 -0.040193 0.169065 -0.548973 16.799600 -40.985400 0.000008 0.000006 6.155240 1.683110 -73.113400 -11.754300 -0.000006 -0.000006 -0.012020 0.285829 -4.956540
0.000000 0.000000 0.000000 0.000000 0.000000 -0.000000 -3.779030 91.591000 0.889377 85.717300 -0.370368 7.141820 15.735700 0.000005 -0.000001 94.690200 85.821700 -92.808100 8.984550 -0.406207 -0.000000 0.556231 0.564739 3.758640 16.377300 -0.000001 -0.000001 12.410200 0.028564 -14.044700 6.456720 -0.000001 -0.000000 -7.415500 0.452274 -23.917200 12.994200 -0.242716 4.980390 -93.537200 8.733980 -67.849500 5.348090 -0.000007 -0.000001 -73.852300 -8.276640 -9.955600 24.328600 0.000019 0.000005 29.614400 -34.610100 -134.979000 22.291600 -0.000001 0.000005 35.517000 5.145490 4.050760 12.994500 -0.242716 -4.980390 87.896200 5.633710 -69.484300 -5.348130 -0.000001 -0.000004 -69.718900 32.825400 -5.354240 -24.328900 0.000322 -0.000009 0.955931 3.351370 -15.946600 -22.291500 -0.000108 -0.000004 -2.355110 5.288320 0.397469 -2.192480 -6.469440 -0.000000 -174.724000 2.973080 0.534278 39.081100 -0.000007 -0.000012 0.389559 -0.729011 28.119500 40.985400 -0.000006 -0.000013 0.637359 4.166790 -77.302800 11.754300 -0.000000 0.000003 -0.000402 0.174140 -9.513410 -2.192510 6.469440 -0.000001 -171.642000 8.123250 -172.753000 -39.081100 -0.002282 -0.040193 0.167093 -0.545229 16.718500 -40.985400 0.000008 0.000006 6.085110 1.545230 -73.002500 -11.754300 -0.000006 -0.000006 -0.011842 0.284590 -5.007260
0.000000 0.000000 0.000000 0.000000 0.000000 -0.000000 -3.743620 91.612400 0.865040 85.758100 -0.388918 7.048180 15.735700 0.000005 -0.000001 94.626300 85.811800 -92.715300 8.984550 -0.406207 -0.000000 0.576780 0.555564 3.816500 16.377300 -0.000001 -0.000001 12.360600 0.018294 -13.990000 6.456720 -0.000001 -0.000000 -7.428670 0.427766 -23.915800 12.994200 -0.242716 4.980390 -93.525400 8.718280 -67.881200 5.348090 -0.000007 -0.000001 -73.722800 -8.207020 -9.986410 24.328600 0.000019 0.000005 29.818400 -34.584500 -134.723000 22.291600 -0.000001 0.000005 35.314400 5.140140 4.177830 12.994500 -0.242716 -4.980390 87.888100 5.658480 -69.494300 -5.348130 -0.000001 -0.000004 -69.785400 32.962700 -5.344000 -24.328900 0.000322 -0.000009 0.914537 3.204310 -15.955700 -22.291500 -0.000108 -0.000004 -2.307320 5.290240 0.344493 -2.192480 -6.469440 -0.000000 -174.784000 2.955660 0.466932 39.081100 -0.000007 -0.000012 0.385720 -0.725025 28.014300 40.985400 -0.000006 -0.000013 0.654736 4.154210 -77.252500 11.754300 -0.000000 0.000003 -0.000476 0.175279 -9.467130 -2.192510 6.469440 -0.000001 -171.705000 8.078860 -172.861000 -39.081100 -0.002282 -0.040193 0.164215 -0.535830 16.713200 -40.985400 0.000008 0.000006 5.909800 1.582730 -72.946600 -11.754300 -0.000006 -0.000006 -0.011758 0.284007 -5.031150
0.000000 0.000000 0.000000 0.000000 0.000000 -0.000000 -3.706620 91.625500 0.840296 85.765700 -0.428386 6.959610 15.735700 0.000005 -0.000001 94.464800 85.788800 -92.507700 8.984550 -0.406207 -0.000000 0.624832 0.533535 3.908390 16.377300 -0.000001 -0.000001 12.270600 0.030109 -13.968700 6.456720 -0.000001 -0.000000 -7.493330 0.402793 -23.886400 12.994200 -0.242716 4.980390 -93.532300 8.746470 -67.905800 5.348090 -0.000007 -0.000001 -73.560300 -8.198080 -10.038200 24.328600 0.000019 0.000005 29.922200 -34.480400 -134.527000 22.291600 -0.000001 0.000005 35.291000 5.138250 4.222830 12.994500 -0.242716 -4.980390 87.876200 5.691050 -69.495700 -5.348130 -0.000001 -0.000004 -69.785300 33.066000 -5.407310 -24.328900 0.000322 -0.000009 0.897160 3.141230 -15.966300 -22.291500 -0.000108 -0.000004 -2.256330 5.292270 0.287991 -2.192480 -6.469440 -0.000000 -174.816000 2.934640 0.401084 39.081100 -0.000007 -0.000012 0.382716 -0.721391 27.948000 40.985400 -0.000006 -0.000013 0.666160 4.100860 -77.172100 11.754300 -0.000000 0.000003 -0.000437 0.174682 -9.491390 -2.192510 6.469440 -0.000001 -171.703000 7.986500 -172.944000 -39.081100 -0.002282 -0.040193 0.163549 -0.535385 16.660900 -40.985400 0.000008 0.000006 5.924940 1.535770 -72.901900 -11.754300 -0.000006 -0.000006 -0.011947 0.285322 -4.977310
